<?xml version="1.0" encoding="UTF-8"?>
<!--
  ============================================================
  Elementum · Icon Library (canonical source-of-truth)
  ============================================================

  Single SVG file containing every reusable icon as a <symbol>.
  Consumed by every legend HTML and by the React app via inline
  <svg><use href="icons.svg#id"/></svg> references.

  Convention (two families coexist — pick the right one per icon):
    · viewBox 0 0 24 24 (all icons)
    · LINE FAMILY  — stroke="currentColor", fill="none",
                     stroke-width 1.7 unless noted, stroke-linecap/-linejoin="round".
                     Used by: tab-*, read-*, ico-*, dm-* Yin (placeholder).
    · SILHOUETTE FAMILY — fill="currentColor", no stroke.
                     Used by: el-* (Set E3 sealed), dm-* Yang (v7 ink-wash).
    Either way, color is owned by the host container — no hardcoded hex inside symbols
    other than the `#fff` highlight overlays in v7 dm-* (semantic: brushwork sheen).

  ID prefixes:
    el-*    five elements (5)             — Set E3 sealed silhouettes (production)
    dm-*    ten day-master stems (10)     — Yang (甲丙戊庚壬) = v7 ink-wash silhouettes;
                                              Yin (乙丁己辛癸) = v4 line placeholders
                                              pending ChatGPT brushwork dispatch
    tab-*   bottom tab navigation (5)
    read-*  reading-section catalogue (5) — PLACEHOLDER, refinement welcome
    ico-*   utility / chrome (9)          — includes ico-back

  Total: 34 symbols.

  Sealed against:
    · Library/element-marks-e3.html      (Set E3 — final el-*)
    · Legends/legend-v7-ink-wash.html    (v7 ink-wash — Yang dm-*)
    · legend-primitives.html §7          (line family conventions)
    · legend-screens.html §4             (canonical tab paths)
    · legend-screens-amendment.html §A2/§A3/§A6 (placeholders DA.2 + DA.9)

  When editing: add/edit symbol here ONLY. Never duplicate inline.
  Drift between this file and any inline SVG in a legend is a
  doc-patch trigger.
  ============================================================
-->
<svg xmlns="http://www.w3.org/2000/svg" width="0" height="0" style="position:absolute" aria-hidden="true">
  <defs>

    <!-- ============================================================
         FIVE ELEMENTS · el-* — SET E3 SEALED
         Source: Library/element-marks-e3.html (production-ready silhouettes)
         Family: SILHOUETTE (fill="currentColor", evenodd cutouts)
         Designed for 16–44px use; replaces v1/v2/v3 line-stroke marks.
         ============================================================ -->

    <!-- Metal — faceted blade / forged shard -->
    <symbol id="el-metal" viewBox="0 0 24 24">
      <path fill="currentColor" fill-rule="evenodd" clip-rule="evenodd"
            d="M12 2.35L18.15 8.05L14.35 17.15H16.45V20.85H7.55V17.15H9.65L5.85 8.05L12 2.35ZM8.25 8.75L11.1 17.15H12.9L15.75 8.75L12 5.4L8.25 8.75ZM10.3 9.15L12 14.65L13.7 9.15L12 7.55L10.3 9.15Z"/>
    </symbol>

    <!-- Wood — stem with two readable leaves -->
    <symbol id="el-wood" viewBox="0 0 24 24">
      <path fill="currentColor" fill-rule="evenodd" clip-rule="evenodd"
            d="M10.95 21.15V13.75C7.55 14.15 5.15 12.05 4.35 7.05C8.15 6.75 10.55 8.35 11.85 11.35C13.2 7.25 15.9 5.15 20.05 5.75C19.85 11.3 16.55 13.95 13.05 13.55V21.15H10.95ZM7.15 8.7C7.85 11.05 9.2 12.05 11 11.65C10.15 9.85 8.95 8.85 7.15 8.7ZM17.2 7.85C15.2 8.05 13.9 9.25 13.15 11.45C15.25 11.6 16.65 10.35 17.2 7.85Z"/>
    </symbol>

    <!-- Fire — sharp triple flame, not a droplet -->
    <symbol id="el-fire" viewBox="0 0 24 24">
      <path fill="currentColor" fill-rule="evenodd" clip-rule="evenodd"
            d="M12.35 2.75C15.85 6.8 18.55 10.35 18.55 14.65C18.55 18.75 15.65 21.25 12 21.25C8.3 21.25 5.45 18.7 5.45 15.05C5.45 12.25 6.9 10 9.55 7.35C9.45 10.05 10.25 12 11.65 13C11.15 9.55 11.4 6.05 12.35 2.75ZM14.95 10.65C16.25 12.45 16.8 13.95 16.8 15.45C16.8 17.85 14.95 19.35 12.1 19.35C9.65 19.35 7.45 17.75 7.45 15.15C7.45 13.75 7.95 12.65 9 11.35C9.3 13.05 10.2 14.25 11.85 15.15L13 15.8L12.75 14.5C12.35 12.45 12.55 10.45 13.2 8.05C13.85 8.95 14.45 9.85 14.95 10.65Z"/>
    </symbol>

    <!-- Earth — mountain mass + stable ground -->
    <symbol id="el-earth" viewBox="0 0 24 24">
      <path fill="currentColor" fill-rule="evenodd" clip-rule="evenodd"
            d="M3.55 18.2L8.45 9.35L11.45 13.15L15.25 5.6L20.45 18.2H3.55ZM8.8 13L7 16.25H17.45L15.1 10.55L12 16.7L8.8 13Z"/>
      <path fill="currentColor" d="M3.1 19.5H20.9V21.15H3.1V19.5Z"/>
    </symbol>

    <!-- Water — two horizontal waves, clearly separate from fire -->
    <symbol id="el-water" viewBox="0 0 24 24">
      <path fill="currentColor"
            d="M3.65 9.2C5.65 6.95 8.45 6.65 11.05 8.4C13.15 9.8 14.65 9.85 16.25 8.3C17.25 7.35 18.75 7.15 20.35 7.9C18.95 10.65 16.35 12 13.5 11.15C12.45 10.85 11.5 10.35 10.55 9.7C8.7 8.5 6.95 8.65 5.55 10.05C4.9 10.7 4.25 10.35 3.65 9.2Z"/>
      <path fill="currentColor"
            d="M3.65 15.15C5.65 12.9 8.45 12.6 11.05 14.35C13.15 15.75 14.65 15.8 16.25 14.25C17.25 13.3 18.75 13.1 20.35 13.85C18.95 16.6 16.35 17.95 13.5 17.1C12.45 16.8 11.5 16.3 10.55 15.65C8.7 14.45 6.95 14.6 5.55 16C4.9 16.65 4.25 16.3 3.65 15.15Z"/>
    </symbol>


    <!-- ============================================================
         TEN DAY-MASTER STEMS · dm-*
         Two visual families coexist until full ink-wash commission:
           · YANG (甲丙戊庚壬) — v7 ink-wash silhouettes, sealed.
             Source: Legends/legend-v7-ink-wash.html (sprite, lines 437–494).
             Family: SILHOUETTE (fill=currentColor, optional #fff overlays
             at low opacity as brushwork sheen — semantic, not chrome).
           · YIN  (乙丁己辛癸) — v4 line placeholders, PENDING brushwork.
             Source: legend-screens-amendment.html §A3. Dispatch brief at
             Documents/Designengineering/PROMPT_chatgpt_iconography_ten_stems_DISPATCH.md.
             When the Yin set returns from ChatGPT, swap in-place.

         Each symbol pairs with a stem hanzi rendered separately in
         Noto Serif SC (NOT included).
         ============================================================ -->

    <!-- 甲 jiǎ · Yang Wood — standing tree (v7 ink-wash) -->
    <symbol id="dm-jia" viewBox="0 0 24 24">
      <g fill="currentColor">
        <path d="M11.6 4.0 C 11.7 4.0 12.3 4.0 12.4 4.0 C 12.7 5.4 12.85 9.0 12.85 13.6 C 12.85 17.4 12.7 19.6 12.5 19.8 C 12.3 20.0 11.7 20.0 11.5 19.8 C 11.3 19.6 11.15 17.4 11.15 13.6 C 11.15 9.0 11.3 5.4 11.6 4.0 Z"/>
        <path d="M12.0 7.4 C 11.0 7.0 8.6 6.0 6.6 5.0 C 6.4 4.9 6.3 5.0 6.5 5.2 C 8.4 6.8 10.6 8.4 12.0 8.6 Z"/>
        <path d="M12.0 9.4 C 13.0 9.0 15.6 8.0 17.6 7.0 C 17.8 6.9 17.9 7.0 17.7 7.2 C 15.6 8.8 13.4 10.4 12.0 10.6 Z"/>
        <ellipse cx="6.2" cy="4.6" rx="0.9" ry="0.5" opacity="0.7"/>
        <ellipse cx="17.8" cy="6.6" rx="0.9" ry="0.5" opacity="0.7"/>
        <path d="M7.0 21.4 C 9.0 21.2 15.0 21.2 17.0 21.4 C 17.2 21.45 17.2 21.65 17.0 21.65 C 15.0 21.7 9.0 21.7 7.0 21.65 C 6.8 21.65 6.8 21.45 7.0 21.4 Z" opacity="0.55"/>
        <circle cx="5.0" cy="22.0" r="0.25" opacity="0.55"/>
        <circle cx="19.0" cy="22.0" r="0.28" opacity="0.55"/>
      </g>
    </symbol>

    <!-- 乙 yǐ · Yin Wood — vine (v4 placeholder, pending brushwork) -->
    <symbol id="dm-yi" viewBox="0 0 24 24">
      <g stroke="currentColor" stroke-width="1.7" fill="none" stroke-linecap="round">
        <path d="M5 18 Q 9 14 12 16 T 19 12"/>
        <path d="M14 17 Q 16 18 17 20"/>
      </g>
    </symbol>

    <!-- 丙 bǐng · Yang Fire — sun disc with rays (v7 ink-wash) -->
    <symbol id="dm-bing" viewBox="0 0 24 24">
      <g fill="currentColor">
        <circle cx="12" cy="12" r="5.0"/>
        <circle cx="12" cy="12" r="3.6" fill="#fff" opacity="0.18"/>
        <path d="M12 2.0 C 12.2 2.4 12.3 3.4 12.2 4.6 C 12.1 5.0 11.9 5.0 11.8 4.6 C 11.7 3.4 11.8 2.4 12.0 2.0 Z"/>
        <path d="M12 19.4 C 12.2 19.8 12.3 20.8 12.2 22.0 C 12.1 22.4 11.9 22.4 11.8 22.0 C 11.7 20.8 11.8 19.8 12.0 19.4 Z"/>
        <path d="M2.0 12 C 2.4 12.2 3.4 12.3 4.6 12.2 C 5.0 12.1 5.0 11.9 4.6 11.8 C 3.4 11.7 2.4 11.8 2.0 12.0 Z"/>
        <path d="M19.4 12 C 19.8 12.2 20.8 12.3 22.0 12.2 C 22.4 12.1 22.4 11.9 22.0 11.8 C 20.8 11.7 19.8 11.8 19.4 12.0 Z"/>
        <path d="M5.0 5.0 C 5.4 5.0 6.4 5.7 7.0 6.4 C 7.2 6.6 7.0 6.8 6.8 6.7 C 6.0 6.0 5.2 5.4 5.0 5.0 Z"/>
        <path d="M19.0 5.0 C 18.6 5.0 17.6 5.7 17.0 6.4 C 16.8 6.6 17.0 6.8 17.2 6.7 C 18.0 6.0 18.8 5.4 19.0 5.0 Z"/>
        <path d="M5.0 19.0 C 5.4 19.0 6.4 18.3 7.0 17.6 C 7.2 17.4 7.0 17.2 6.8 17.3 C 6.0 18.0 5.2 18.6 5.0 19.0 Z"/>
        <path d="M19.0 19.0 C 18.6 19.0 17.6 18.3 17.0 17.6 C 16.8 17.4 17.0 17.2 17.2 17.3 C 18.0 18.0 18.8 18.6 19.0 19.0 Z"/>
      </g>
    </symbol>

    <!-- 丁 dīng · Yin Fire — candle (v4 placeholder, pending brushwork) -->
    <symbol id="dm-ding" viewBox="0 0 24 24">
      <g stroke="currentColor" stroke-width="1.7" fill="none" stroke-linecap="round" stroke-linejoin="round">
        <rect x="9" y="11" width="6" height="9"/>
        <path d="M11 6 Q 12 4 13 6 Q 13 9 12 11 Q 11 9 11 6 Z"/>
      </g>
    </symbol>

    <!-- 戊 wù · Yang Earth — mountain silhouette (v7 ink-wash) -->
    <symbol id="dm-wu" viewBox="0 0 24 24">
      <g fill="currentColor">
        <path d="M2.4 19.4 C 4.0 17.0 6.0 13.6 7.4 11.4 C 7.8 10.8 8.2 10.8 8.6 11.4 C 9.4 12.6 10.4 14.0 11.0 14.6 C 11.6 15.2 12.0 14.8 12.4 14.0 C 13.4 12.0 15.4 7.6 16.4 5.8 C 16.7 5.3 17.1 5.3 17.4 5.8 C 18.6 8.0 20.4 12.4 21.6 19.4 C 21.65 19.7 21.5 19.85 21.2 19.85 C 17.0 20.0 7.0 20.0 2.8 19.85 C 2.5 19.85 2.35 19.7 2.4 19.4 Z"/>
        <path d="M16.4 9.0 C 16.6 8.8 17.0 8.7 17.2 8.9 C 17.4 9.1 17.5 9.5 17.3 9.6 C 16.9 9.7 16.4 9.5 16.4 9.0 Z" fill="#fff" opacity="0.5"/>
        <circle cx="4.0" cy="20.6" r="0.28" opacity="0.55"/>
        <circle cx="20.0" cy="20.8" r="0.3" opacity="0.55"/>
      </g>
    </symbol>

    <!-- 己 jǐ · Yin Earth — tilled field (v4 placeholder, pending brushwork) -->
    <symbol id="dm-ji" viewBox="0 0 24 24">
      <g stroke="currentColor" stroke-width="1.7" fill="none" stroke-linejoin="round">
        <rect x="4" y="6" width="16" height="12"/>
        <line x1="4" y1="12" x2="20" y2="12"/>
        <line x1="12" y1="6" x2="12" y2="18"/>
      </g>
    </symbol>

    <!-- 庚 gēng · Yang Metal — sword (v7 ink-wash, carried from v4-polish §V1) -->
    <symbol id="dm-geng" viewBox="0 0 24 24">
      <g fill="currentColor">
        <path d="M12.0 2.2 C 12.15 2.4 12.25 3.0 12.3 4.0 C 12.4 6.5 12.5 10.0 12.5 13.4 C 12.5 14.4 12.4 14.8 12.0 14.8 C 11.6 14.8 11.5 14.4 11.5 13.4 C 11.5 10.0 11.6 6.5 11.7 4.0 C 11.75 3.0 11.85 2.4 12.0 2.2 Z"/>
        <path d="M11.95 4.5 C 12.05 6.5 12.05 10.0 11.95 12.5 C 11.85 10.0 11.85 6.5 11.95 4.5 Z" fill="#fff" opacity="0.25"/>
        <path d="M8.0 14.6 C 9.4 14.4 14.6 14.4 16.0 14.6 C 16.4 14.65 16.7 14.95 16.7 15.3 C 16.7 15.7 16.7 16.0 16.6 16.2 C 16.4 16.5 16.0 16.6 15.4 16.6 C 13.0 16.65 11.0 16.65 8.6 16.6 C 8.0 16.6 7.6 16.5 7.4 16.2 C 7.3 16.0 7.3 15.7 7.3 15.3 C 7.3 14.95 7.6 14.65 8.0 14.6 Z"/>
        <path d="M11.0 16.6 C 11.4 16.6 12.6 16.6 13.0 16.6 C 13.2 16.6 13.3 16.7 13.3 16.9 C 13.3 17.6 13.3 18.6 13.25 19.4 C 13.25 19.55 13.15 19.65 13.0 19.65 C 12.4 19.7 11.6 19.7 11.0 19.65 C 10.85 19.65 10.75 19.55 10.75 19.4 C 10.7 18.6 10.7 17.6 10.7 16.9 C 10.7 16.7 10.8 16.6 11.0 16.6 Z"/>
        <circle cx="12.0" cy="20.4" r="0.55"/>
      </g>
    </symbol>

    <!-- 辛 xīn · Yin Metal — jewel (v4 placeholder, pending brushwork) -->
    <symbol id="dm-xin" viewBox="0 0 24 24">
      <g stroke="currentColor" stroke-width="1.7" fill="none" stroke-linejoin="round">
        <path d="M12 4 L 18 9 L 15 19 L 9 19 L 6 9 Z"/>
        <line x1="12" y1="4" x2="12" y2="19"/>
        <line x1="6" y1="9" x2="18" y2="9"/>
      </g>
    </symbol>

    <!-- 壬 rén · Yang Water — three waves (v7 ink-wash) -->
    <symbol id="dm-ren" viewBox="0 0 24 24">
      <g fill="currentColor">
        <path d="M3.0 7.0 C 4.0 6.3 5.6 5.6 7.0 5.4 C 8.4 5.2 9.4 5.6 10.4 6.4 C 11.2 7.0 11.7 7.4 12.0 7.5 C 12.4 7.6 13.0 7.4 13.8 6.8 C 15.0 5.8 16.4 5.2 17.8 5.2 C 19.0 5.2 19.8 5.6 21.0 6.4 C 21.15 6.5 21.05 6.65 20.85 6.6 C 19.6 6.2 18.6 6.1 17.4 6.4 C 16.2 6.7 15.2 7.4 14.2 8.2 C 13.4 8.8 12.7 9.0 12.0 8.95 C 11.4 8.9 10.6 8.6 9.6 7.9 C 8.6 7.2 7.8 6.8 6.8 7.0 C 5.6 7.2 4.4 7.6 3.2 8.0 C 3.0 8.05 2.85 7.95 3.0 7.0 Z"/>
        <path d="M2.8 11.6 C 4.0 11.0 5.4 10.4 7.0 10.4 C 8.4 10.4 9.4 10.8 10.4 11.6 C 11.2 12.2 11.7 12.4 12.0 12.4 C 12.4 12.4 13.0 12.2 13.8 11.6 C 15.0 10.8 16.4 10.4 17.8 10.4 C 19.2 10.4 20.4 11.0 21.4 11.6 C 21.6 11.7 21.5 11.85 21.3 11.8 C 19.8 11.4 18.4 11.2 17.0 11.5 C 15.6 11.8 14.6 12.6 13.4 13.4 C 12.7 13.9 12.4 14.0 12.0 14.0 C 11.6 14.0 11.0 13.8 10.0 13.2 C 8.8 12.4 7.4 11.7 6.0 12.0 C 4.6 12.3 3.6 12.6 2.6 12.6 C 2.4 12.6 2.4 12.0 2.8 11.6 Z"/>
        <path d="M3.0 16.4 C 4.4 15.8 5.6 15.4 7.0 15.4 C 8.2 15.4 9.0 15.8 10.0 16.4 C 10.8 17.0 11.5 17.2 12.0 17.2 C 12.5 17.2 13.2 17.0 14.0 16.4 C 15.0 15.8 16.0 15.4 17.2 15.4 C 18.6 15.4 19.8 15.8 20.8 16.4 C 21.0 16.5 20.9 16.65 20.7 16.6 C 19.4 16.3 18.4 16.2 17.2 16.5 C 16.0 16.8 15.0 17.4 14.0 18.0 C 13.2 18.5 12.6 18.6 12.0 18.6 C 11.4 18.6 10.8 18.5 10.0 18.0 C 9.0 17.4 8.0 16.8 6.8 16.5 C 5.6 16.2 4.6 16.3 3.4 16.6 C 3.2 16.65 3.05 16.55 3.0 16.4 Z" opacity="0.85"/>
      </g>
    </symbol>

    <!-- 癸 guǐ · Yin Water — mist (v4 placeholder, pending brushwork) -->
    <symbol id="dm-gui" viewBox="0 0 24 24">
      <g stroke="currentColor" stroke-width="1.5" fill="none" stroke-linecap="round">
        <path d="M4 7 Q 7 5 10 7"/>
        <path d="M14 8 Q 17 6 20 8"/>
        <path d="M5 12 Q 8 10 11 12 T 19 12"/>
        <path d="M8 17 Q 11 15 14 17"/>
      </g>
    </symbol>


    <!-- ============================================================
         BOTTOM TAB NAV · tab-*
         Source: legend-screens.html §4 (lines 1227–1231 canonical)
         Status: SEALED — do not redraw without doc patch.
         ============================================================ -->

    <symbol id="tab-today" viewBox="0 0 24 24">
      <g stroke="currentColor" stroke-width="1.7" fill="none" stroke-linecap="round" stroke-linejoin="round">
        <rect x="3" y="5" width="18" height="16" rx="2"/>
        <path d="M3 10h18"/>
        <path d="M8 3v4"/>
        <path d="M16 3v4"/>
      </g>
    </symbol>

    <symbol id="tab-guidance" viewBox="0 0 24 24">
      <g stroke="currentColor" stroke-width="1.7" fill="none" stroke-linecap="round" stroke-linejoin="round">
        <circle cx="12" cy="12" r="9"/>
        <path d="M12 4.8 L14.5 12 L12 19.2 L9.5 12 Z"/>
        <circle cx="12" cy="12" r="0.9" fill="currentColor" stroke="none"/>
      </g>
    </symbol>

    <symbol id="tab-reading" viewBox="0 0 24 24">
      <g stroke="currentColor" stroke-width="1.7" fill="none" stroke-linecap="round" stroke-linejoin="round">
        <path d="M3 5 C 6 4, 9 4, 12 6 C 15 4, 18 4, 21 5 V19 C 18 18, 15 18, 12 20 C 9 18, 6 18, 3 19 Z"/>
        <path d="M12 6 V20"/>
      </g>
    </symbol>

    <symbol id="tab-compat" viewBox="0 0 24 24">
      <g stroke="currentColor" stroke-width="1.7" fill="none" stroke-linecap="round" stroke-linejoin="round">
        <circle cx="8.5" cy="12" r="6.5"/>
        <circle cx="15.5" cy="12" r="6.5"/>
        <circle cx="12" cy="12" r="0.9" fill="currentColor" stroke="none"/>
      </g>
    </symbol>

    <symbol id="tab-profile" viewBox="0 0 24 24">
      <g stroke="currentColor" stroke-width="1.7" fill="none" stroke-linecap="round" stroke-linejoin="round">
        <circle cx="12" cy="8" r="4"/>
        <path d="M4 21c0-4 3.5-7 8-7s8 3 8 7"/>
      </g>
    </symbol>


    <!-- ============================================================
         READING-SECTION CATALOGUE · read-*
         Source: legend-screens-amendment.html §A2 / §A6
         Status: PLACEHOLDER (DA.9) — refinement or brushwork welcome.
         ============================================================ -->

    <!-- Elemental Nature — wu-xing pentagram -->
    <symbol id="read-elemental" viewBox="0 0 24 24">
      <g stroke="currentColor" stroke-width="1.5" fill="none" stroke-linecap="round" stroke-linejoin="round">
        <circle cx="12" cy="12" r="8"/>
        <path d="M12 4 L 19.6 9.4 L 16.7 18.6 L 7.3 18.6 L 4.4 9.4 Z"/>
      </g>
    </symbol>

    <!-- Dominant Energies — primary filled + secondary hollow -->
    <symbol id="read-dominant" viewBox="0 0 24 24">
      <g stroke="currentColor" stroke-width="1.6" fill="none">
        <circle cx="9" cy="11" r="4" fill="currentColor"/>
        <circle cx="17" cy="15" r="2.5"/>
      </g>
    </symbol>

    <!-- Forces in Motion — ↑↓ paired arrows -->
    <symbol id="read-forces" viewBox="0 0 24 24">
      <g stroke="currentColor" stroke-width="1.7" fill="none" stroke-linecap="round" stroke-linejoin="round">
        <path d="M8 4 V14 M5 7 L 8 4 L 11 7"/>
        <path d="M16 20 V10 M13 17 L 16 20 L 19 17"/>
      </g>
    </symbol>

    <!-- Life Chapters — vertical stem + 3 horizontal branches (decade timeline) -->
    <symbol id="read-chapters" viewBox="0 0 24 24">
      <g stroke="currentColor" stroke-width="1.7" fill="none" stroke-linecap="round">
        <line x1="12" y1="3"  x2="12" y2="21"/>
        <line x1="9"  y1="7"  x2="15" y2="7"/>
        <line x1="9"  y1="12" x2="15" y2="12"/>
        <line x1="9"  y1="17" x2="15" y2="17"/>
      </g>
    </symbol>

    <!-- Pillar Patterns — 4 vertical bars (the literal 八字 four pillars) -->
    <symbol id="read-pillars" viewBox="0 0 24 24">
      <g stroke="currentColor" stroke-width="1.7" fill="none" stroke-linecap="round">
        <line x1="5"    y1="6" x2="5"    y2="18"/>
        <line x1="9.7"  y1="6" x2="9.7"  y2="18"/>
        <line x1="14.3" y1="6" x2="14.3" y2="18"/>
        <line x1="19"   y1="6" x2="19"   y2="18"/>
      </g>
    </symbol>


    <!-- ============================================================
         UTILITY / CHROME · ico-*
         Source: legend-primitives.html §7 (lock) + amendment + DOC5.
         ============================================================ -->

    <!-- Lock — locked card affordance -->
    <symbol id="ico-lock" viewBox="0 0 24 24">
      <g stroke="currentColor" stroke-width="1.6" fill="none" stroke-linejoin="round">
        <rect x="5" y="11" width="14" height="9" rx="1.5"/>
        <path d="M8 11 V 8 a4 4 0 0 1 8 0 V 11"/>
      </g>
    </symbol>

    <!-- Chevron right — list-row affordance -->
    <symbol id="ico-chev-r" viewBox="0 0 24 24">
      <path d="M9 6 L15 12 L9 18"
            stroke="currentColor" stroke-width="1.6" fill="none" stroke-linecap="round" stroke-linejoin="round"/>
    </symbol>

    <!-- Chevron left — back affordance -->
    <symbol id="ico-chev-l" viewBox="0 0 24 24">
      <path d="M15 6 L9 12 L15 18"
            stroke="currentColor" stroke-width="1.6" fill="none" stroke-linecap="round" stroke-linejoin="round"/>
    </symbol>

    <!-- Back chevron (heavier 2.0px stroke) — page header back button -->
    <symbol id="ico-back" viewBox="0 0 24 24">
      <path d="M14 6 L8 12 L14 18"
            stroke="currentColor" stroke-width="2.0" fill="none" stroke-linecap="round" stroke-linejoin="round"/>
    </symbol>

    <!-- Arrow right — CTA / dashed-link affordance -->
    <symbol id="ico-arrow-r" viewBox="0 0 24 24">
      <g stroke="currentColor" stroke-width="1.6" fill="none" stroke-linecap="round" stroke-linejoin="round">
        <path d="M5 12 H19"/>
        <path d="M14 7 L19 12 L14 17"/>
      </g>
    </symbol>

    <!-- Dismiss × — modal close -->
    <symbol id="ico-dismiss" viewBox="0 0 24 24">
      <g stroke="currentColor" stroke-width="1.7" fill="none" stroke-linecap="round">
        <line x1="6" y1="6"  x2="18" y2="18"/>
        <line x1="18" y1="6" x2="6"  y2="18"/>
      </g>
    </symbol>

    <!-- Sun + horizon — daily / Today affordance -->
    <symbol id="ico-sunrise" viewBox="0 0 24 24">
      <g stroke="currentColor" stroke-width="1.7" fill="none" stroke-linecap="round">
        <line x1="3" y1="17" x2="21" y2="17"/>
        <path d="M7 17 A 5 5 0 0 1 17 17"/>
        <line x1="12" y1="6"  x2="12"  y2="8"   stroke-width="1.4"/>
        <line x1="6"  y1="11" x2="7.3" y2="12.3" stroke-width="1.4"/>
        <line x1="18" y1="11" x2="16.7" y2="12.3" stroke-width="1.4"/>
      </g>
    </symbol>

    <!-- Empty placeholder — circle + 3-dot ellipsis (vessel-not-yet-filled) -->
    <symbol id="ico-empty" viewBox="0 0 24 24">
      <g stroke="currentColor" stroke-width="1.4" fill="none">
        <circle cx="12" cy="12" r="7"/>
        <circle cx="9"  cy="12" r="0.9" fill="currentColor" stroke="none"/>
        <circle cx="12" cy="12" r="0.9" fill="currentColor" stroke="none"/>
        <circle cx="15" cy="12" r="0.9" fill="currentColor" stroke="none"/>
      </g>
    </symbol>

    <!-- Edit pencil — Profile edit action -->
    <symbol id="ico-edit" viewBox="0 0 24 24">
      <path d="M14.5 4.5l5 5L8 21H3v-5L14.5 4.5z"
            stroke="currentColor" stroke-width="1.7" fill="none" stroke-linecap="round" stroke-linejoin="round"/>
    </symbol>

  </defs>
</svg>
